<?xml version="1.0" standalone="no"?><!DOCTYPE svg PUBLIC "-//W3C//DTD SVG 1.1//EN" "http://www.w3.org/Graphics/SVG/1.1/DTD/svg11.dtd"><svg t="1553422326039" class="icon" style="" viewBox="0 0 1137 1024" version="1.1" xmlns="http://www.w3.org/2000/svg" p-id="4727" xmlns:xlink="http://www.w3.org/1999/xlink" width="222.0703125" height="200"><defs><style type="text/css"></style></defs><path d="M1131.984213 274.261333c-15.587556-96.199111-68.352-172.202667-156.871111-225.877333C924.28288 17.521778 867.052658 1.194667 809.680213 1.194667c-73.272889 0-142.791111 27.306667-195.697777 76.856889-16.412444 15.36-31.402667 32.142222-45.852445 48.469333-44.942222-55.751111-90.88-90.225778-144.099555-108.288C330.590436-13.425778 237.520213-1.223111 152.016213 53.987556 50.355769 119.608889-0.787342 212.508444 0.009102 330.154667c0.455111 69.262222 23.125333 134.997333 69.290667 200.903111 49.550222 70.826667 110.535111 142.933333 191.886222 226.958222 54.755556 56.547556 111.473778 112.753778 166.314667 167.168l53.532444 53.134222c4.778667 4.750222 9.642667 9.443556 14.506667 14.108445l6.058667 5.717333c11.377778 9.671111 35.128889 25.856 66.247111 25.856 25.742222 0 50.176-10.752 72.817777-32.113778 93.070222-89.201778 192.284444-186.083556 286.663112-290.218666 48.896-53.930667 104.846222-117.333333 150.442666-187.733334 49.351111-76.231111 67.612444-156.899556 54.215111-239.672889m-101.944889 206.791111c-43.235556 66.730667-95.203556 125.639111-144.725333 180.280889-93.240889 102.798222-191.516444 198.855111-283.704889 287.203556-11.576889 10.922667-22.983111 16.469333-33.877333 16.469333-13.169778 0-24.291556-7.793778-28.444445-11.178666l-4.721777-4.551112c-4.664889-4.494222-9.301333-8.931556-13.824-13.425777l-53.560889-53.191111c-54.670222-54.186667-111.160889-110.222222-165.489778-166.343112-80.298667-82.887111-137.671111-150.698667-186.083556-219.875555-39.139556-55.921778-58.311111-110.762667-58.709333-167.708445-0.654222-97.621333 40.391111-171.804444 125.525333-226.759111 45.255111-29.212444 92.444444-44.032 140.145778-44.032 27.278222 0 55.296 4.835556 83.342222 14.336 44.117333 14.961778 82.944 45.255111 122.624 95.857778 2.673778 3.214222 17.123556 19.342222 39.537778 19.342222 9.898667 0 24.519111-3.185778 38.257778-18.574222l2.275556-2.56c14.791111-16.696889 28.728889-32.455111 43.832888-46.648889 42.979556-40.220444 97.336889-61.468444 157.127112-61.468444 47.104 0 94.179556 13.482667 136.192 38.968889 74.467556 45.169778 116.935111 105.841778 129.848888 185.514666 11.121778 68.864-3.754667 133.745778-45.568 198.343111" p-id="4728" fill="#13227a"></path></svg>