<?xml version="1.0" standalone="no"?><!DOCTYPE svg PUBLIC "-//W3C//DTD SVG 1.1//EN" "http://www.w3.org/Graphics/SVG/1.1/DTD/svg11.dtd"><svg t="1553318195837" class="icon" style="" viewBox="0 0 1024 1024" version="1.1" xmlns="http://www.w3.org/2000/svg" p-id="5132" xmlns:xlink="http://www.w3.org/1999/xlink" width="200" height="200"><defs><style type="text/css"></style></defs><path d="M508.8 750.4c-116.8 0-211.2-97.6-211.2-217.6s94.4-217.6 211.2-217.6S720 412.8 720 532.8s-94.4 217.6-211.2 217.6z m0-371.2c-81.6 0-147.2 68.8-147.2 153.6s65.6 153.6 147.2 153.6 147.2-68.8 147.2-153.6-65.6-153.6-147.2-153.6z" fill="#707070" p-id="5133"></path><path d="M980.8 912H38.4c-17.6 0-32-14.4-32-32V252.8c0-17.6 14.4-32 32-32h228.8l57.6-116.8c4.8-11.2 16-17.6 28.8-17.6h313.6c12.8 0 24 6.4 28.8 17.6l57.6 116.8h224c17.6 0 32 14.4 32 32V880c3.2 17.6-11.2 32-28.8 32zM70.4 848h876.8V284.8H736c-12.8 0-24-6.4-28.8-17.6l-57.6-116.8H374.4l-57.6 116.8c0 1.6-1.6 3.2-1.6 4.8l-9.6 9.6c-3.2 3.2-8 4.8-12.8 4.8H70.4V848z" fill="#707070" p-id="5134"></path></svg>